<?xml version="1.0" encoding="iso-8859-1"?>
<!-- Generator: Adobe Illustrator 16.0.0, SVG Export Plug-In . SVG Version: 6.00 Build 0)  -->
<!DOCTYPE svg PUBLIC "-//W3C//DTD SVG 1.1//EN" "http://www.w3.org/Graphics/SVG/1.1/DTD/svg11.dtd">
<svg version="1.1" id="Capa_1" xmlns="http://www.w3.org/2000/svg" xmlns:xlink="http://www.w3.org/1999/xlink" x="0px" y="0px"
	 width="79.855px" height="79.855px" viewBox="0 0 79.855 79.855" style="enable-background:new 0 0 79.855 79.855;"
	 xml:space="preserve">
<g>
	<g id="_x32_1">
		<g>
			<path d="M56.182,38.647c1.342,0,2.43-1.089,2.43-2.433c0-1.343-1.088-2.432-2.43-2.432c-1.345,0-2.433,1.089-2.433,2.432
				C53.749,37.558,54.837,38.647,56.182,38.647z M59.252,28.721c0.951,0,1.723-0.771,1.723-1.723s-0.771-1.723-1.723-1.723
				s-1.723,0.771-1.723,1.723S58.301,28.721,59.252,28.721z M78.318,67.579H66.453c1.64-1.743,2.652-4.082,2.652-6.658V10.74
				c0-0.849-0.687-1.536-1.535-1.536h-21.5c-0.85,0-1.535,0.687-1.535,1.536v50.181c0,2.576,1.013,4.915,2.652,6.658H34.319
				c1.154-1.236,1.999-2.784,2.39-4.546l4.719-21.236c0.1-0.456-0.011-0.93-0.302-1.293c-0.293-0.366-0.731-0.576-1.198-0.576H6.143
				c-0.467,0-0.905,0.21-1.198,0.576c-0.291,0.363-0.402,0.837-0.302,1.293l4.719,21.236c0.392,1.762,1.236,3.31,2.39,4.546H1.536
				C0.687,67.579,0,68.267,0,69.115s0.687,1.536,1.536,1.536H78.32c0.85,0,1.535-0.688,1.535-1.536
				C79.855,68.267,79.169,67.579,78.318,67.579z M8.058,43h29.955l-1.365,6.146H9.423L8.058,43z M27.215,67.579h-8.359
				c-3.144,0-5.814-2.143-6.495-5.212l-2.255-10.149h25.859L33.71,62.367C33.029,65.437,30.358,67.579,27.215,67.579z
				 M66.034,60.921c0,3.674-2.984,6.658-6.654,6.658h-5.12c-3.669,0-6.652-2.984-6.652-6.658v-7.849
				c2.082,2.476,5.139,3.922,8.438,3.922c2.089,0,4.131-0.595,5.901-1.717c1.808-1.146,3.205-2.757,4.087-4.649V60.921z
				 M49.943,51.074l4.429-2.808l-0.476,5.297C52.376,53.147,50.975,52.308,49.943,51.074z M59.368,45.101l3.917-2.481
				c0.729,1.578,0.919,3.345,0.531,5.069c-0.047,0.213-0.108,0.42-0.172,0.625L59.368,45.101z M62.165,51.043
				c-0.526,0.631-1.147,1.187-1.86,1.64c-1.025,0.647-2.175,1.022-3.347,1.145l0.562-6.271L62.165,51.043z M66.034,41.272
				c-0.199-0.422-0.415-0.84-0.669-1.24c-0.088-0.138-0.186-0.261-0.334-0.435c-0.475-0.666-1.383-0.85-2.074-0.408l-15.352,9.729
				V21.493h18.429V41.272z M66.034,18.421H47.605v-6.145h18.429V18.421z"/>
		</g>
	</g>
</g>
<g>
</g>
<g>
</g>
<g>
</g>
<g>
</g>
<g>
</g>
<g>
</g>
<g>
</g>
<g>
</g>
<g>
</g>
<g>
</g>
<g>
</g>
<g>
</g>
<g>
</g>
<g>
</g>
<g>
</g>
</svg>
